<mxfile host="app.diagrams.net" modified="2023-10-05T12:45:23.890Z" agent="Mozilla/5.0 (Windows NT 10.0; Win64; x64) AppleWebKit/537.36 (KHTML, like Gecko) Chrome/117.0.0.0 Safari/537.36" etag="mANSCiR6uIM_vmGZX90Y" version="22.0.2" type="github">
  <diagram id="C5RBs43oDa-KdzZeNtuy" name="Page-1">
    <mxGraphModel dx="792" dy="726" grid="1" gridSize="10" guides="1" tooltips="1" connect="1" arrows="1" fold="1" page="1" pageScale="1" pageWidth="827" pageHeight="1169" math="0" shadow="0">
      <root>
        <mxCell id="WIyWlLk6GJQsqaUBKTNV-0" />
        <mxCell id="WIyWlLk6GJQsqaUBKTNV-1" parent="WIyWlLk6GJQsqaUBKTNV-0" />
        <mxCell id="GTRDl59IKvxXWgO_4okt-0" value="" style="edgeStyle=orthogonalEdgeStyle;rounded=0;orthogonalLoop=1;jettySize=auto;html=1;" edge="1" parent="WIyWlLk6GJQsqaUBKTNV-1" source="GTRDl59IKvxXWgO_4okt-1" target="GTRDl59IKvxXWgO_4okt-7">
          <mxGeometry relative="1" as="geometry" />
        </mxCell>
        <mxCell id="GTRDl59IKvxXWgO_4okt-1" value="" style="strokeWidth=2;html=1;shape=mxgraph.flowchart.start_2;whiteSpace=wrap;" vertex="1" parent="WIyWlLk6GJQsqaUBKTNV-1">
          <mxGeometry x="120" y="20" width="30" height="30" as="geometry" />
        </mxCell>
        <mxCell id="GTRDl59IKvxXWgO_4okt-2" value="" style="strokeWidth=2;html=1;shape=mxgraph.flowchart.terminator;whiteSpace=wrap;" vertex="1" parent="WIyWlLk6GJQsqaUBKTNV-1">
          <mxGeometry x="102.5" y="630" width="65" height="40" as="geometry" />
        </mxCell>
        <mxCell id="GTRDl59IKvxXWgO_4okt-3" value="escreva Var" style="strokeWidth=2;html=1;shape=mxgraph.flowchart.document2;whiteSpace=wrap;size=0.25;" vertex="1" parent="WIyWlLk6GJQsqaUBKTNV-1">
          <mxGeometry x="85" y="430" width="100" height="60" as="geometry" />
        </mxCell>
        <mxCell id="GTRDl59IKvxXWgO_4okt-4" style="edgeStyle=orthogonalEdgeStyle;rounded=0;orthogonalLoop=1;jettySize=auto;html=1;entryX=0.5;entryY=0;entryDx=0;entryDy=0;entryPerimeter=0;" edge="1" parent="WIyWlLk6GJQsqaUBKTNV-1" target="GTRDl59IKvxXWgO_4okt-3">
          <mxGeometry relative="1" as="geometry">
            <mxPoint x="135" y="320" as="sourcePoint" />
          </mxGeometry>
        </mxCell>
        <mxCell id="GTRDl59IKvxXWgO_4okt-5" style="edgeStyle=orthogonalEdgeStyle;rounded=0;orthogonalLoop=1;jettySize=auto;html=1;entryX=0.5;entryY=0;entryDx=0;entryDy=0;entryPerimeter=0;" edge="1" parent="WIyWlLk6GJQsqaUBKTNV-1" source="GTRDl59IKvxXWgO_4okt-3" target="GTRDl59IKvxXWgO_4okt-2">
          <mxGeometry relative="1" as="geometry" />
        </mxCell>
        <mxCell id="GTRDl59IKvxXWgO_4okt-6" value="" style="edgeStyle=orthogonalEdgeStyle;rounded=0;orthogonalLoop=1;jettySize=auto;html=1;" edge="1" parent="WIyWlLk6GJQsqaUBKTNV-1" source="GTRDl59IKvxXWgO_4okt-7" target="GTRDl59IKvxXWgO_4okt-8">
          <mxGeometry relative="1" as="geometry" />
        </mxCell>
        <mxCell id="GTRDl59IKvxXWgO_4okt-7" value="cadeia Var = &quot; &quot;" style="whiteSpace=wrap;html=1;strokeWidth=2;" vertex="1" parent="WIyWlLk6GJQsqaUBKTNV-1">
          <mxGeometry x="75" y="115" width="120" height="60" as="geometry" />
        </mxCell>
        <mxCell id="GTRDl59IKvxXWgO_4okt-8" value="leia Var" style="html=1;strokeWidth=2;shape=manualInput;whiteSpace=wrap;rounded=1;size=26;arcSize=11;" vertex="1" parent="WIyWlLk6GJQsqaUBKTNV-1">
          <mxGeometry x="85" y="260" width="100" height="60" as="geometry" />
        </mxCell>
      </root>
    </mxGraphModel>
  </diagram>
</mxfile>
